<?xml version="1.0" encoding="utf-8"?>
<!-- Generator: Adobe Illustrator 22.0.0, SVG Export Plug-In . SVG Version: 6.00 Build 0)  -->
<svg version="1.1" id="Capa_1" xmlns="http://www.w3.org/2000/svg" xmlns:xlink="http://www.w3.org/1999/xlink" x="0px" y="0px"
	 viewBox="0 0 47.9 16.5" style="enable-background:new 0 0 47.9 16.5;" xml:space="preserve">
<style type="text/css">
	.st0{fill:#84AE9F;}
</style>
<g>
	<g>
		<polygon class="st0" points="34.6,2 33.7,4.2 35.4,4.2 		"/>
	</g>
</g>
<g>
	<g>
		<polygon class="st0" points="4.1,2 3.2,4.2 5,4.2 		"/>
	</g>
</g>
<g>
	<g>
		<path class="st0" d="M24.3,2.4c-0.2-0.1-0.4-0.1-0.6-0.1h-1.6v1.2h1.6c0.2,0,0.5,0,0.6-0.1c0.2-0.1,0.3-0.3,0.3-0.5
			C24.6,2.6,24.5,2.4,24.3,2.4z"/>
	</g>
</g>
<g>
	<g>
		<path class="st0" d="M29.8,11.6c-0.2-0.1-0.4-0.1-0.6-0.1h-1.6v1.2h1.6c0.2,0,0.5,0,0.6-0.1c0.2-0.1,0.3-0.3,0.3-0.5
			C30.1,11.8,30,11.7,29.8,11.6z"/>
	</g>
</g>
<g>
	<g>
		<path class="st0" d="M23.6,11.5h-1.7v1.4h1.7c0.5,0,0.8-0.2,0.8-0.7C24.4,11.7,24,11.5,23.6,11.5z"/>
	</g>
</g>
<g>
	<g>
		<path class="st0" d="M47.3,12.2C47.3,12.2,47.2,12.2,47.3,12.2c0.2-0.2,0.4-0.5,0.4-0.8v-1.1c0-0.5-0.4-0.9-0.9-0.9h-2.6
			c-0.8,0-1.4,0.2-1.8,0.6c-0.1-0.3-0.4-0.6-0.8-0.6h-2.6c-0.7,0-1.3,0.2-1.7,0.5c-0.2-0.3-0.4-0.5-0.8-0.5h-4.3
			c-0.3,0-0.6,0.2-0.8,0.5c-0.1,0-0.1-0.1-0.2-0.1c-0.6-0.3-1.3-0.4-2-0.4h-3c-0.3,0-0.6,0.2-0.8,0.5c-0.5-0.3-1.1-0.5-2-0.5h-4.1
			c-0.2,0-0.5,0.1-0.7,0.3l-1,1l-0.9-1c-0.2-0.2-0.4-0.3-0.7-0.3h-5.2c-0.5,0-0.9,0.4-0.9,0.9v5.4c0,0.5,0.4,0.9,0.9,0.9h5.1
			c0.2,0,0.5-0.1,0.6-0.3l1-1.1l0.9,1c0.2,0.2,0.4,0.3,0.7,0.3h2.5c0.5,0,0.9-0.4,0.9-0.9v-0.9h0.7c0.9,0,1.5-0.2,2-0.4v1.4
			c0,0.5,0.4,0.9,0.9,0.9h1.3c0.5,0,0.9-0.4,0.9-0.9v-1.1H29c0.1,0,0.2,0,0.3,0c0,0.1,0,0.2,0,0.3v0.8c0,0.5,0.4,0.9,0.9,0.9h1.3
			c0.1,0,0.3,0,0.4-0.1c0.1,0.1,0.2,0.1,0.4,0.1h4.3c0.1,0,0.3,0,0.4-0.1c0.1,0.1,0.2,0.1,0.4,0.1h2.5c0.8,0,1.4-0.2,1.9-0.5
			c0.1,0.3,0.4,0.5,0.8,0.5H45c1.8,0,2.9-1,2.9-2.6C47.9,13.2,47.7,12.6,47.3,12.2z M23.5,13.8h-1.6v1.8h-2.5l-1.6-1.8l-1.6,1.8
			h-5.1v-5.4h5.2l1.6,1.8l1.6-1.8h4.1c1,0,2.2,0.3,2.2,1.8C25.7,13.5,24.6,13.8,23.5,13.8z M30.6,13.1c0.3,0.1,0.5,0.3,0.6,0.5
			c0.2,0.3,0.2,0.5,0.2,1v1.1h-1.3V15c0-0.3,0-0.8-0.2-1.1c-0.2-0.2-0.5-0.2-0.9-0.2h-1.4v2h-1.3v-5.4h3c0.6,0,1.1,0,1.5,0.3
			c0.4,0.2,0.7,0.6,0.7,1.2C31.5,12.6,30.9,13,30.6,13.1z M36.5,11.4h-3v1h2.9v1.1h-2.9v1.1l3,0v1.1h-4.3v-5.4h4.3V11.4z M39.8,15.6
			h-2.5v-1.2h2.5c0.2,0,0.4,0,0.5-0.1c0.1-0.1,0.2-0.2,0.2-0.4c0-0.2-0.1-0.3-0.2-0.4c-0.1-0.1-0.2-0.1-0.5-0.1
			c-1.2,0-2.7,0-2.7-1.7c0-0.8,0.5-1.6,1.8-1.6h2.6v1.1h-2.4c-0.2,0-0.4,0-0.5,0.1c-0.1,0.1-0.2,0.2-0.2,0.4c0,0.2,0.1,0.3,0.3,0.4
			c0.1,0,0.3,0.1,0.5,0.1l0.7,0c0.7,0,1.2,0.1,1.5,0.4c0.3,0.3,0.4,0.6,0.4,1.1C41.8,15.1,41.1,15.6,39.8,15.6z M45,15.6h-2.5v-1.2
			H45c0.2,0,0.4,0,0.5-0.1c0.1-0.1,0.2-0.2,0.2-0.4c0-0.2-0.1-0.3-0.2-0.4c-0.1-0.1-0.2-0.1-0.5-0.1c-1.2,0-2.7,0-2.7-1.7
			c0-0.8,0.5-1.6,1.8-1.6h2.6v1.1h-2.4c-0.2,0-0.4,0-0.5,0.1c-0.1,0.1-0.2,0.2-0.2,0.4c0,0.2,0.1,0.3,0.3,0.4c0.1,0,0.3,0.1,0.5,0.1
			l0.7,0c0.7,0,1.2,0.1,1.5,0.4c0.2,0.3,0.4,0.6,0.4,1.1C47,15.1,46.3,15.6,45,15.6z"/>
	</g>
</g>
<g>
	<g>
		<path class="st0" d="M43.2,0.2h-1.3c-0.5,0-0.9,0.4-0.9,0.9v0.6l-0.6-1c-0.2-0.3-0.4-0.4-0.8-0.4h-2c-0.5,0-0.9,0.4-0.9,0.9v0.8
			l-0.5-1.1c-0.1-0.3-0.5-0.5-0.8-0.5h-1.9c-0.2,0-0.4,0.1-0.5,0.2c-0.1-0.1-0.3-0.2-0.5-0.2h-1.2c-1.1,0-1.8,0.3-2.4,0.8
			c-0.1-0.4-0.4-0.8-0.9-0.8h-1.3c-0.4,0-0.6,0.2-0.8,0.5c-0.1,0-0.1-0.1-0.2-0.1c-0.6-0.3-1.2-0.4-2-0.4h-3c-0.2,0-0.3,0.1-0.4,0.1
			c-0.1-0.1-0.3-0.1-0.4-0.1h-4.3c-0.2,0-0.3,0.1-0.5,0.2c-0.1-0.1-0.3-0.2-0.5-0.2h-2.1c-0.4,0-0.7,0.2-0.8,0.5L11,2.6l-0.8-1.8
			C10,0.5,9.7,0.3,9.4,0.3H7.3c-0.5,0-0.9,0.4-0.9,0.9v0.8L5.9,0.8C5.8,0.5,5.4,0.2,5.1,0.2H3.2c-0.4,0-0.7,0.2-0.8,0.5L0.1,6.2
			C0,6.4,0,6.7,0.1,7c0.2,0.2,0.4,0.4,0.7,0.4h1.4c0.4,0,0.7-0.2,0.8-0.5l0.3-0.7h1.5l0.3,0.6c0.1,0.3,0.5,0.5,0.8,0.5h2.6
			C9,7.4,9.4,7,9.4,6.5v0l0.2,0.4c0.1,0.3,0.5,0.5,0.8,0.5l1.1,0c0.4,0,0.7-0.2,0.8-0.5l0.2-0.4v0c0,0.5,0.4,0.9,0.9,0.9h1.3
			c0.2,0,0.3-0.1,0.5-0.2c0.1,0.1,0.3,0.2,0.5,0.2H20c0.2,0,0.3-0.1,0.4-0.1c0.1,0.1,0.3,0.1,0.4,0.1h1.3C22.6,7.4,23,7,23,6.5V5.4
			h0.5c0.1,0,0.2,0,0.2,0c0,0.1,0,0.2,0,0.3l0,0.1l0,0.7c0,0.5,0.4,0.9,0.9,0.9h1.3c0.1,0,0.3,0,0.4-0.1c0.1,0.1,0.3,0.1,0.4,0.1
			h1.3c0.4,0,0.8-0.3,0.9-0.7c0.7,0.6,1.8,0.7,2.3,0.7h1.5c0.4,0,0.7-0.2,0.8-0.6l0.3-0.6h1.5l0.3,0.7c0.1,0.3,0.5,0.5,0.8,0.5H39
			c0.5,0,0.9-0.4,0.9-0.9V5.7L40.7,7c0.2,0.3,0.4,0.4,0.8,0.4h1.8c0.5,0,0.9-0.4,0.9-0.9V1.1C44.1,0.6,43.7,0.2,43.2,0.2z M14.7,6.5
			h-1.3l0-4.2l-1.9,4.2h-1.1L8.6,2.3v4.2H5.9L5.4,5.3H2.8L2.3,6.5H0.9l2.3-5.4h1.9l2.2,5.1V1.1h2.1L11,4.8l1.5-3.6h2.1
			C14.7,1.1,14.7,6.5,14.7,6.5z M20,2.3h-3v1h2.9v1.1H17v1.1h3v1.1h-4.3V1.1H20V2.3z M25.1,4c0.3,0.1,0.5,0.3,0.6,0.5
			c0.2,0.3,0.2,0.5,0.2,1v1.1h-1.3l0-0.7c0-0.3,0-0.8-0.2-1c-0.2-0.2-0.5-0.2-0.9-0.2h-1.4v2h-1.3h0V1.1h3c0.7,0,1.1,0,1.6,0.3
			C25.8,1.6,26,2,26,2.6C26,3.4,25.4,3.9,25.1,4z M28.1,6.5h-1.3V1.1h1.3V6.5z M43.2,6.5h-1.8l-2.4-4v4h-2.6l-0.5-1.2h-2.7l-0.5,1.2
			h-1.5c-0.6,0-1.4-0.1-1.9-0.6c-0.5-0.5-0.7-1.1-0.7-2c0-0.8,0.1-1.5,0.7-2.1c0.4-0.4,1.1-0.6,1.9-0.6h1.2v1.1h-1.2
			c-0.5,0-0.7,0.1-1,0.3C30.1,2.8,30,3.3,30,3.8c0,0.6,0.1,1,0.4,1.3c0.2,0.2,0.6,0.3,0.9,0.3h0.6l1.8-4.2h1.9l2.2,5.1V1.1h2
			l2.3,3.7V1.1h1.3V6.5z M31.8,3.2l-0.6,1.3c-0.1,0-0.2,0-0.3,0c0-0.1-0.1-0.3-0.1-0.6c0-0.4,0.1-0.6,0.1-0.6c0,0,0.1-0.1,0.4-0.1
			L31.8,3.2z"/>
	</g>
</g>
<g>
	<g>
		<polygon class="st0" points="18.7,13.1 20.6,15.3 20.6,11 		"/>
	</g>
</g>
<g>
	<g>
		<polygon class="st0" points="15.6,11.5 12.4,11.5 12.4,12.5 15.2,12.5 15.2,13.6 12.4,13.6 12.4,14.6 15.5,14.6 17,13 		"/>
	</g>
</g>
</svg>
