<?xml version="1.0" encoding="utf-8"?>
<!-- Generator: Adobe Illustrator 22.0.0, SVG Export Plug-In . SVG Version: 6.00 Build 0)  -->
<svg version="1.1" id="Capa_1" xmlns="http://www.w3.org/2000/svg" xmlns:xlink="http://www.w3.org/1999/xlink" x="0px" y="0px"
	 viewBox="0 0 47.9 22.4" style="enable-background:new 0 0 47.9 22.4;" xml:space="preserve">
<style type="text/css">
	.st0{fill:#84AE9F;}
</style>
<g>
	<g>
		<polygon class="st0" points="35.7,1.4 35.7,0.3 32,0.3 32,6.9 35.7,6.9 35.7,5.8 33.3,5.8 33.3,4 35.6,4 35.6,2.9 33.3,2.9 
			33.3,1.4 		"/>
	</g>
</g>
<g>
	<g>
		<path class="st0" d="M39.3,4.1c1-0.2,1.5-0.9,1.5-1.9c0-1.2-0.9-2-2.4-2h-1.9v6.6h1.3V4.2H38l1.8,2.7h1.6L39.3,4.1z M38.2,3.3
			h-0.4l0-2h0.4c0.8,0,1.2,0.3,1.2,1C39.5,3,39.1,3.3,38.2,3.3z"/>
	</g>
</g>
<g>
	<g>
		<path class="st0" d="M41.4,0.1c-0.3,0-0.5,0.2-0.5,0.5s0.2,0.5,0.5,0.5c0.3,0,0.5-0.2,0.5-0.5C41.9,0.4,41.7,0.1,41.4,0.1z
			 M41.4,1.1c-0.2,0-0.4-0.2-0.4-0.4s0.2-0.4,0.4-0.4s0.4,0.2,0.4,0.4S41.6,1.1,41.4,1.1z"/>
	</g>
</g>
<g>
	<g>
		<path class="st0" d="M41.5,0.7c0.1,0,0.1-0.1,0.1-0.2c0-0.1-0.1-0.2-0.2-0.2h-0.2v0.6h0.1V0.7l0.2,0.2h0.2L41.5,0.7z M41.4,0.6
			L41.4,0.6l0-0.2h0c0.1,0,0.1,0,0.1,0.1C41.5,0.6,41.4,0.6,41.4,0.6z"/>
	</g>
</g>
<g>
	<g>
		<rect x="6.1" y="0.3" class="st0" width="1.3" height="6.6"/>
	</g>
</g>
<g>
	<g>
		<path class="st0" d="M10.5,2.8c-0.8-0.3-1-0.5-1-0.8c0-0.4,0.4-0.7,1-0.7c0.4,0,0.7,0.2,1,0.5l0.7-0.9c-0.6-0.5-1.2-0.7-2-0.7
			C9.1,0.2,8.2,1,8.2,2.1c0,0.9,0.4,1.4,1.6,1.8c0.5,0.2,0.8,0.3,0.9,0.4c0.3,0.2,0.4,0.4,0.4,0.7c0,0.5-0.4,0.9-1,0.9
			C9.5,5.9,9,5.6,8.7,5L7.8,5.8c0.6,0.9,1.3,1.3,2.3,1.3c1.3,0,2.3-0.9,2.3-2.2C12.4,3.8,12,3.4,10.5,2.8z"/>
	</g>
</g>
<g>
	<g>
		<path class="st0" d="M12.7,22.4h35.3V9.7C47.9,9.7,35.5,18.5,12.7,22.4z"/>
	</g>
</g>
<g>
	<g>
		<path class="st0" d="M1.9,0.3H0v6.6h1.9c1,0,1.7-0.2,2.4-0.8C5,5.5,5.5,4.6,5.5,3.6C5.5,1.6,4,0.3,1.9,0.3z M3.4,5.3
			C3,5.6,2.5,5.8,1.6,5.8H1.3V1.4h0.3c0.8,0,1.3,0.1,1.8,0.5c0.4,0.4,0.7,1,0.7,1.7C4.1,4.2,3.9,4.9,3.4,5.3z"/>
	</g>
</g>
<g>
	<g>
		<polygon class="st0" points="30,0.3 28.3,4.7 26.5,0.3 25.1,0.3 27.9,7.1 28.6,7.1 31.5,0.3 		"/>
	</g>
</g>
<g>
	<g>
		<path class="st0" d="M21.9,0.1c-1.5,0-2.7,0.9-3.3,2.2c-0.2,0.4-0.3,0.9-0.3,1.4c0,2,1.6,3.5,3.5,3.5c1.6,0,2.9-1,3.4-2.5
			c0-0.1,0-0.1,0.1-0.2c0-0.1,0-0.1,0-0.2c0-0.2,0.1-0.5,0.1-0.7C25.5,1.7,23.9,0.1,21.9,0.1z"/>
	</g>
</g>
<g>
	<g>
		<path class="st0" d="M16.4,1.3c0.6,0,1.1,0.2,1.6,0.7V0.5c-0.6-0.3-1-0.4-1.6-0.4c-2,0-3.5,1.5-3.5,3.5c0,2,1.5,3.5,3.5,3.5
			c0.6,0,1-0.1,1.6-0.4V5.1c-0.5,0.5-1,0.7-1.6,0.7c-1.3,0-2.2-0.9-2.2-2.3C14.2,2.3,15.1,1.3,16.4,1.3z"/>
	</g>
</g>
</svg>
