<?xml version="1.0" encoding="utf-8"?>
<!-- Generator: Adobe Illustrator 22.0.0, SVG Export Plug-In . SVG Version: 6.00 Build 0)  -->
<svg version="1.1" id="Layer_1" xmlns="http://www.w3.org/2000/svg" xmlns:xlink="http://www.w3.org/1999/xlink" x="0px" y="0px"
	 viewBox="0 0 512 330.3" style="enable-background:new 0 0 512 330.3;" xml:space="preserve">
<style type="text/css">
	.st0{fill:#84AE9F;}
</style>
<path class="st0" d="M347.3,0c-33.8,0-65.2,10.2-91.3,27.7C229.8,10.2,198.4,0,164.7,0C73.9,0,0,73.9,0,164.6
	s73.9,164.6,164.7,164.6c33.8,0,65.2-10.2,91.3-27.7c26.2,17.5,57.6,27.7,91.3,27.7c90.8,0,164.7-73.9,164.7-164.6S438.1,0,347.3,0z
	 M164.7,299.3C90.4,299.3,30,238.9,30,164.6S90.4,30,164.7,30c24.3,0,47.1,6.5,66.8,17.8c-30.1,29.9-48.8,71.2-48.8,116.9
	s18.7,87,48.8,116.9C211.8,292.8,189,299.3,164.7,299.3z M299.3,164.6c0,39-16.7,74.2-43.3,98.8c-9.4-8.7-17.6-18.7-24.2-29.8h17.3
	c8.3,0,15-6.7,15-15s-6.7-15-15-15h-30.6c-1.9-6.1-3.3-12.4-4.3-18.8h58.9c8.3,0,15-6.7,15-15s-6.7-15-15-15h-60
	c0.5-6.4,1.4-12.7,2.7-18.8h33.3c8.3,0,15-6.7,15-15c0-8.3-6.7-15-15-15h-23c7.4-15.2,17.6-28.9,29.9-40.2
	C282.6,90.4,299.3,125.6,299.3,164.6z M347.3,299.3c-24.3,0-47.1-6.5-66.8-17.8c30.1-29.9,48.8-71.2,48.8-116.9s-18.7-87-48.8-116.9
	C300.2,36.5,323,30,347.3,30C421.6,30,482,90.4,482,164.6S421.6,299.3,347.3,299.3z"/>
</svg>
