<svg width="115" height="55" viewBox="0 0 115 55" fill="none" xmlns="http://www.w3.org/2000/svg">
<path fill-rule="evenodd" clip-rule="evenodd" d="M0.46875 22.4062C2.65625 23.6771 5.13021 24.3125 7.89062 24.3125C10.5052 24.3125 12.5833 23.7292 14.125 22.5625C15.6667 21.3854 16.4375 19.7083 16.4375 17.5312C16.4375 15.7083 15.9844 14.2865 15.0781 13.2656C14.1823 12.2448 12.6875 11.3906 10.5938 10.7031C10.3021 10.6094 9.66667 10.4062 8.6875 10.0938C7.70833 9.78125 7.09375 9.57812 6.84375 9.48438C5.58333 9.09896 4.95312 8.27083 4.95312 7C4.99479 5.96875 5.33333 5.23438 5.96875 4.79688C6.61458 4.34896 7.56771 4.125 8.82812 4.125C10.5781 4.125 12.474 4.58333 14.5156 5.5L15.7969 2.40625C13.7969 1.27083 11.4167 0.703125 8.65625 0.703125C6.21875 0.703125 4.26042 1.26562 2.78125 2.39062C1.3125 3.51562 0.578125 5.11458 0.578125 7.1875C0.578125 10.1458 2.11458 12.1667 5.1875 13.25C5.42708 13.3438 5.81771 13.4792 6.35938 13.6562C6.91146 13.8229 7.5 14 8.125 14.1875C8.75 14.3646 9.13021 14.474 9.26562 14.5156C11.1823 15.0677 12.1406 16.0625 12.1406 17.5C12.1406 18.5833 11.7969 19.4167 11.1094 20C10.4219 20.5729 9.40625 20.8594 8.0625 20.8594C6.96875 20.8594 5.84375 20.6927 4.6875 20.3594C3.54167 20.026 2.47917 19.5885 1.5 19.0469L0.46875 22.4062ZM21.1562 21.9531C22.6979 23.5365 24.849 24.3281 27.6094 24.3281C29.9844 24.3281 32.0312 23.7969 33.75 22.7344L33.1719 19.8281C31.4427 20.8073 29.6406 21.2969 27.7656 21.2969C26.2969 21.2969 25.1406 20.8594 24.2969 19.9844C23.4635 19.099 23.026 17.8542 22.9844 16.25H34.4062V15.375C34.4167 14.9792 34.4219 14.6927 34.4219 14.5156C34.4219 12.0677 33.7656 10.1042 32.4531 8.625C31.151 7.14583 29.3177 6.40625 26.9531 6.40625C24.4531 6.41667 22.4792 7.22917 21.0312 8.84375C19.5833 10.4583 18.8594 12.6302 18.8594 15.3594C18.8594 18.1615 19.625 20.3594 21.1562 21.9531ZM30.5625 13.6719H23.0625C23.1667 12.2344 23.5781 11.151 24.2969 10.4219C25.026 9.69271 25.9167 9.32812 26.9688 9.32812C28.0938 9.32812 28.974 9.70312 29.6094 10.4531C30.2448 11.2031 30.5625 12.276 30.5625 13.6719ZM45.2812 24.3281C42.6562 24.3281 40.6094 23.5469 39.1406 21.9844C37.6823 20.4219 36.9531 18.1875 36.9531 15.2812C36.9531 12.4688 37.7188 10.2865 39.25 8.73438C40.7917 7.18229 42.8177 6.40625 45.3281 6.40625C47.3385 6.40625 49.0365 6.83854 50.4219 7.70312L49.4531 10.625C48.0365 9.88542 46.7188 9.51562 45.5 9.51562C44.1146 9.51562 43.0208 10.0104 42.2188 11C41.4271 11.9896 41.0312 13.4323 41.0312 15.3281C41.0312 17.2448 41.4219 18.7031 42.2031 19.7031C42.9948 20.7031 44.1094 21.2031 45.5469 21.2031C47.0469 21.2031 48.4896 20.7604 49.875 19.875L50.2656 22.9844C49.5469 23.4635 48.8021 23.8073 48.0312 24.0156C47.2604 24.224 46.3438 24.3281 45.2812 24.3281ZM51.5938 1.10938L57.8125 24H62.1719L67.5312 7.23438L72.4219 24H76.8125L83.2188 1.10938H79L74.4688 18.9844L69.5156 1.21875H65.4688L60.25 18.9219L55.8125 1.10938H51.5938ZM92.5 21.2188C93.8854 21.2188 94.9271 20.7135 95.625 19.7031C96.3229 18.6927 96.6719 17.2448 96.6719 15.3594C96.6719 13.4531 96.3229 12 95.625 11C94.9271 10 93.875 9.5 92.4688 9.5C91.0833 9.5 90.0365 10.0052 89.3281 11.0156C88.6302 12.0156 88.2812 13.4688 88.2812 15.375C88.2812 17.25 88.6354 18.6927 89.3438 19.7031C90.0521 20.7135 91.1042 21.2188 92.5 21.2188ZM92.3906 24.3281C89.849 24.3281 87.849 23.5052 86.3906 21.8594C84.9323 20.2135 84.2031 18.0469 84.2031 15.3594C84.2031 12.5885 84.9323 10.4062 86.3906 8.8125C87.849 7.20833 89.9062 6.40625 92.5625 6.40625C95.125 6.40625 97.1302 7.22396 98.5781 8.85938C100.036 10.4844 100.766 12.651 100.766 15.3594C100.766 18.099 100.031 20.2812 98.5625 21.9062C97.0938 23.5208 95.0365 24.3281 92.3906 24.3281ZM104.125 6.82812V24H108.219V14.6875C108.219 13.2604 108.589 12.1458 109.328 11.3438C110.078 10.5417 111.208 10.1406 112.719 10.1406C113.167 10.1406 113.599 10.1719 114.016 10.2344L114.078 6.8125C113.797 6.77083 113.432 6.75 112.984 6.75C110.849 6.75 109.219 7.65104 108.094 9.45312L107.562 6.82812H104.125ZM24.9141 39.1016V51H26.2109V47.6016L27.1641 46.7812L30.2969 51H31.9219L28.1094 46.0391L31.6719 42.4297H30.0156C28.125 44.3307 26.9531 45.5286 26.5 46.0234C26.4635 46.0599 26.4141 46.1146 26.3516 46.1875C26.2891 46.2604 26.2422 46.3125 26.2109 46.3438V45.25V39.0234L24.9141 39.1016ZM7.42188 50.2891L3.875 42.0391L3.57812 41.25L3.63281 44.0781V51H2.36719V39.4453H4.11719L8.14062 48.6484L12.125 39.4453H13.8281V51H12.5156V44.0469L12.5703 41.2812L12.2812 42.0703L8.74219 50.2891H7.42188ZM18.7969 50.125C19.4167 50.125 19.9609 49.9557 20.4297 49.6172C20.9036 49.2734 21.2083 48.8125 21.3438 48.2344V46.7891C21.3177 46.7891 21.1589 46.8021 20.8672 46.8281C20.5807 46.8542 20.3932 46.8698 20.3047 46.875C19.1745 46.974 18.3854 47.1589 17.9375 47.4297C17.4948 47.7005 17.2734 48.1354 17.2734 48.7344C17.2734 49.1927 17.4089 49.5391 17.6797 49.7734C17.9505 50.0078 18.3229 50.125 18.7969 50.125ZM21.6328 51C21.5547 50.6667 21.4792 50.3073 21.4062 49.9219C20.9323 50.3958 20.487 50.724 20.0703 50.9062C19.6536 51.0885 19.1641 51.1797 18.6016 51.1797C17.7995 51.1797 17.1536 50.9714 16.6641 50.5547C16.1797 50.1328 15.9375 49.5286 15.9375 48.7422C15.9375 47.8672 16.2682 47.2188 16.9297 46.7969C17.5964 46.375 18.5547 46.112 19.8047 46.0078C19.9766 45.9922 20.2344 45.9714 20.5781 45.9453C20.9271 45.9141 21.1875 45.8906 21.3594 45.875V45.1172C21.3594 44.513 21.2188 44.0651 20.9375 43.7734C20.6562 43.4818 20.2135 43.3359 19.6094 43.3359C18.7656 43.3359 17.9141 43.5443 17.0547 43.9609C17.0286 43.8984 16.9609 43.7188 16.8516 43.4219C16.7422 43.1198 16.6849 42.9635 16.6797 42.9531C17.0599 42.7396 17.5104 42.5703 18.0312 42.4453C18.5573 42.3151 19.0911 42.25 19.6328 42.25C20.7005 42.25 21.4688 42.4844 21.9375 42.9531C22.4115 43.4167 22.6484 44.2083 22.6484 45.3281V51H21.6328ZM37.8203 44.0156C37.4401 43.5573 36.9167 43.3281 36.25 43.3281C35.5833 43.3281 35.0391 43.5651 34.6172 44.0391C34.1953 44.5078 33.9479 45.151 33.875 45.9688H38.3984C38.3984 45.1198 38.2057 44.4688 37.8203 44.0156ZM36.5078 51.1797C35.263 51.1797 34.2812 50.7839 33.5625 49.9922C32.849 49.2005 32.4922 48.1172 32.4922 46.7422C32.4922 45.4141 32.8385 44.3385 33.5312 43.5156C34.224 42.6875 35.1354 42.2656 36.2656 42.25C37.3281 42.25 38.1693 42.6146 38.7891 43.3438C39.4141 44.0677 39.7266 45.0365 39.7266 46.25C39.7266 46.3125 39.724 46.4271 39.7188 46.5938V46.9531H33.8359C33.8516 47.9271 34.1016 48.6875 34.5859 49.2344C35.0755 49.776 35.7318 50.0469 36.5547 50.0469C37.4609 50.0469 38.3698 49.8073 39.2812 49.3281L39.4844 50.3828C38.6146 50.9141 37.6224 51.1797 36.5078 51.1797ZM47.0781 51V42.4297H45.7656V51H47.0781ZM47.0781 40.8594V39.3125H45.7656V40.8594H47.0781ZM52.2734 51.1562C51.4297 51.1562 50.8307 50.9505 50.4766 50.5391C50.1224 50.1276 49.9349 49.4635 49.9141 48.5469V43.3984H48.6406L48.6953 42.5391L49.9062 42.4297L50.3516 40.4688L51.2109 40.4375V42.4297H53.5938V43.3984H51.2109V48.3125C51.2109 48.9635 51.3099 49.4219 51.5078 49.6875C51.7057 49.9531 52.0443 50.0859 52.5234 50.0859C52.6953 50.0859 53.0677 50.0443 53.6406 49.9609L53.6953 50.9922C53.0755 51.1016 52.6016 51.1562 52.2734 51.1562ZM58.7891 42.4297V48.1406C58.7891 48.5729 58.8516 48.9635 58.9766 49.3125C59.1016 49.6615 59.2708 49.9531 59.4844 50.1875C59.7031 50.4167 59.9609 50.6094 60.2578 50.7656C60.5599 50.9167 60.8776 51.026 61.2109 51.0938C61.5443 51.1615 61.8984 51.1953 62.2734 51.1953C62.6536 51.1953 63.0078 51.1615 63.3359 51.0938C63.6693 51.026 63.9844 50.9167 64.2812 50.7656C64.5781 50.6146 64.8307 50.4245 65.0391 50.1953C65.2526 49.9609 65.4219 49.6693 65.5469 49.3203C65.6719 48.9714 65.7344 48.5781 65.7344 48.1406V42.4297H64.4219V48.1562C64.4219 48.8698 64.2318 49.375 63.8516 49.6719C63.4766 49.9688 62.9505 50.1172 62.2734 50.1172C61.9453 50.1172 61.6536 50.0859 61.3984 50.0234C61.1484 49.9609 60.9219 49.8594 60.7188 49.7188C60.5208 49.5729 60.3672 49.3698 60.2578 49.1094C60.1536 48.849 60.1016 48.5312 60.1016 48.1562V42.4297H58.7891ZM67.6797 51V42.4297H68.7734L68.9375 43.6562C69.276 43.2344 69.6979 42.8958 70.2031 42.6406C70.7135 42.3802 71.263 42.25 71.8516 42.25C72.8411 42.25 73.5729 42.5286 74.0469 43.0859C74.5208 43.638 74.7578 44.4896 74.7578 45.6406V51H73.4531C73.4531 47.5625 73.4505 45.7214 73.4453 45.4766C73.4245 44.7474 73.276 44.2135 73 43.875C72.7292 43.5365 72.2734 43.3672 71.6328 43.3672C70.9609 43.3672 70.401 43.5286 69.9531 43.8516C69.5052 44.1745 69.2135 44.5938 69.0781 45.1094C69.026 45.4583 69 45.8594 69 46.3125V51H67.6797ZM78.4688 51V42.4297H77.1562V51H78.4688ZM78.4688 40.8594V39.3125H77.1562V40.8594H78.4688ZM84.125 51.1797C83.3802 51.1797 82.7344 50.987 82.1875 50.6016C81.6458 50.2161 81.2396 49.6953 80.9688 49.0391C80.6979 48.3828 80.5625 47.6276 80.5625 46.7734C80.5625 45.888 80.6979 45.1094 80.9688 44.4375C81.2396 43.7604 81.651 43.2266 82.2031 42.8359C82.7552 42.4453 83.4167 42.25 84.1875 42.25C85.2552 42.25 86.1536 42.7135 86.8828 43.6406L86.9766 42.4297H88.1328V54.6406L86.8281 54.7188V50.9141C86.8281 50.5339 86.8411 50.1484 86.8672 49.7578C86.5755 50.1953 86.1927 50.5417 85.7188 50.7969C85.2448 51.0521 84.7135 51.1797 84.125 51.1797ZM84.2969 50.0547C85.1615 50.0547 85.7969 49.7839 86.2031 49.2422C86.6146 48.7005 86.8255 47.9089 86.8359 46.8672C86.8359 45.7161 86.6354 44.8464 86.2344 44.2578C85.8333 43.6693 85.1849 43.375 84.2891 43.375C83.7474 43.375 83.2917 43.5312 82.9219 43.8438C82.5573 44.151 82.2969 44.5495 82.1406 45.0391C81.9844 45.5234 81.9062 46.0859 81.9062 46.7266C81.9062 47.2109 81.9505 47.651 82.0391 48.0469C82.1328 48.4375 82.2734 48.7865 82.4609 49.0938C82.6484 49.3958 82.8958 49.6328 83.2031 49.8047C83.5156 49.9714 83.8802 50.0547 84.2969 50.0547ZM90.1016 42.4297V48.1406C90.1016 48.5729 90.1641 48.9635 90.2891 49.3125C90.4141 49.6615 90.5833 49.9531 90.7969 50.1875C91.0156 50.4167 91.2734 50.6094 91.5703 50.7656C91.8724 50.9167 92.1901 51.026 92.5234 51.0938C92.8568 51.1615 93.2109 51.1953 93.5859 51.1953C93.9661 51.1953 94.3203 51.1615 94.6484 51.0938C94.9818 51.026 95.2969 50.9167 95.5938 50.7656C95.8906 50.6146 96.1432 50.4245 96.3516 50.1953C96.5651 49.9609 96.7344 49.6693 96.8594 49.3203C96.9844 48.9714 97.0469 48.5781 97.0469 48.1406V42.4297H95.7344V48.1562C95.7344 48.8698 95.5443 49.375 95.1641 49.6719C94.7891 49.9688 94.263 50.1172 93.5859 50.1172C93.2578 50.1172 92.9661 50.0859 92.7109 50.0234C92.4609 49.9609 92.2344 49.8594 92.0312 49.7188C91.8333 49.5729 91.6797 49.3698 91.5703 49.1094C91.4661 48.849 91.4141 48.5312 91.4141 48.1562V42.4297H90.1016ZM103.93 44.0156C103.549 43.5573 103.026 43.3281 102.359 43.3281C101.693 43.3281 101.148 43.5651 100.727 44.0391C100.305 44.5078 100.057 45.151 99.9844 45.9688H104.508C104.508 45.1198 104.315 44.4688 103.93 44.0156ZM102.617 51.1797C101.372 51.1797 100.391 50.7839 99.6719 49.9922C98.9583 49.2005 98.6016 48.1172 98.6016 46.7422C98.6016 45.4141 98.9479 44.3385 99.6406 43.5156C100.333 42.6875 101.245 42.2656 102.375 42.25C103.438 42.25 104.279 42.6146 104.898 43.3438C105.523 44.0677 105.836 45.0365 105.836 46.25C105.836 46.3125 105.833 46.4271 105.828 46.5938V46.9531H99.9453C99.9609 47.9271 100.211 48.6875 100.695 49.2344C101.185 49.776 101.841 50.0469 102.664 50.0469C103.57 50.0469 104.479 49.8073 105.391 49.3281L105.594 50.3828C104.724 50.9141 103.732 51.1797 102.617 51.1797ZM107.781 50.0625C107.781 50.3385 107.872 50.5807 108.055 50.7891C108.242 50.9922 108.497 51.0938 108.82 51.0938C109.148 51.0938 109.404 50.9922 109.586 50.7891C109.768 50.5859 109.859 50.3438 109.859 50.0625C109.859 49.7812 109.768 49.5391 109.586 49.3359C109.404 49.1328 109.148 49.0312 108.82 49.0312C108.497 49.0312 108.242 49.1354 108.055 49.3438C107.872 49.5469 107.781 49.7865 107.781 50.0625ZM109.586 40.4219V39.3125H108.047V40.4219L108.531 47.6016H109.148L109.586 40.4219Z" fill="#828282"/>
</svg>
