<?xml version="1.0" encoding="utf-8"?>
<!-- Generator: Adobe Illustrator 22.0.0, SVG Export Plug-In . SVG Version: 6.00 Build 0)  -->
<svg version="1.1" id="Capa_1" xmlns="http://www.w3.org/2000/svg" xmlns:xlink="http://www.w3.org/1999/xlink" x="0px" y="0px"
	 viewBox="0 0 47.8 14.7" style="enable-background:new 0 0 47.8 14.7;" xml:space="preserve">
<style type="text/css">
	.st0{fill:#84AE9F;}
</style>
<g>
	<g>
		<polygon class="st0" points="19.2,0.3 16.7,14.6 20.6,14.6 23,0.3 		"/>
	</g>
</g>
<g>
	<g>
		<path class="st0" d="M13.5,0.3l-3.8,9.7L9.2,8.6C8.5,6.8,6.4,4.3,3.9,2.7l3.5,11.9l4.1,0l6.1-14.2L13.5,0.3z"/>
	</g>
</g>
<g>
	<g>
		<path class="st0" d="M7.8,1.3C7.5,0.5,6.9,0.2,6.1,0.2h-6L0,0.5c4.7,1.1,7.8,3.9,9.1,7.2L7.8,1.3z"/>
	</g>
</g>
<g>
	<g>
		<path class="st0" d="M30.9,3c1.3,0,2.2,0.3,2.9,0.5l0.4,0.2l0.5-3.1c-0.8-0.3-2-0.6-3.5-0.6c-3.8,0-6.6,1.9-6.6,4.7
			c0,2,1.9,3.2,3.4,3.9c1.5,0.7,2,1.1,2,1.8c0,1-1.2,1.4-2.3,1.4c-1.6,0-2.4-0.2-3.7-0.7l-0.5-0.2L23,14c0.9,0.4,2.6,0.7,4.3,0.8
			c4.1,0,6.7-1.9,6.8-4.9c0-1.6-1-2.9-3.3-3.9c-1.4-0.7-2.2-1.1-2.2-1.8C28.7,3.7,29.4,3,30.9,3z"/>
	</g>
</g>
<g>
	<g>
		<path class="st0" d="M44.7,0.3h-3c-0.9,0-1.6,0.3-2,1.2l-5.8,13.1H38c0,0,0.7-1.8,0.8-2.1c0.4,0,4.4,0,5,0
			c0.1,0.5,0.5,2.1,0.5,2.1h3.6L44.7,0.3z M39.9,9.5c0.3-0.8,1.5-4,1.5-4c0,0,0.3-0.8,0.5-1.4l0.3,1.2c0,0,0.7,3.4,0.9,4.1H39.9z"/>
	</g>
</g>
</svg>
